<svg id="svg" version="1.1" xmlns="http://www.w3.org/2000/svg" xmlns:xlink="http://www.w3.org/1999/xlink" width="400" height="400" viewBox="0, 0, 400,400"><g id="svgg"><path id="path0" d="M88.209 306.414 C 88.340 306.626,87.992 306.800,87.436 306.800 C 86.445 306.800,83.992 307.973,82.999 308.921 C 82.724 309.184,82.116 309.665,81.649 309.988 C 81.182 310.312,80.800 310.817,80.800 311.112 C 80.800 311.427,80.594 311.529,80.300 311.359 C 80.025 311.201,79.928 311.213,80.084 311.387 C 80.240 311.560,80.092 312.236,79.754 312.890 C 79.416 313.543,79.022 314.466,78.880 314.939 C 78.737 315.413,78.566 329.430,78.500 346.090 L 78.381 376.380 79.290 376.599 C 79.791 376.720,107.110 376.770,140.000 376.710 L 199.800 376.600 199.902 341.966 L 200.004 307.331 255.293 307.054 C 285.702 306.902,310.712 306.648,310.871 306.489 C 311.030 306.330,301.854 306.290,290.480 306.400 C 247.476 306.816,130.297 306.812,129.795 306.396 C 129.136 305.849,87.871 305.867,88.209 306.414 " stroke="none" fill="#bc642c" fill-rule="evenodd"></path><path id="path1" d="M280.300 306.300 C 285.635 306.363,294.365 306.363,299.700 306.300 C 305.035 306.237,300.670 306.185,290.000 306.185 C 279.330 306.185,274.965 306.237,280.300 306.300 M310.971 306.389 C 310.726 306.634,290.177 306.880,255.293 307.054 L 200.004 307.331 199.902 341.966 L 199.800 376.600 139.400 376.521 C 106.180 376.477,77.290 376.355,75.200 376.249 C 72.352 376.105,71.250 376.192,70.800 376.597 C 70.470 376.894,69.698 377.263,69.084 377.416 C 67.844 377.726,64.400 380.955,64.400 381.808 C 64.400 382.108,64.220 382.464,64.000 382.600 C 63.780 382.736,63.600 383.287,63.600 383.824 C 63.600 384.361,63.420 384.800,63.200 384.800 C 62.965 384.800,62.800 386.200,62.800 388.200 C 62.800 390.200,62.965 391.600,63.200 391.600 C 63.420 391.600,63.600 392.140,63.600 392.800 C 63.600 393.460,63.780 394.000,64.000 394.000 C 64.220 394.000,64.400 394.275,64.400 394.611 C 64.400 395.386,67.787 398.800,68.556 398.800 C 68.874 398.800,69.208 399.025,69.300 399.300 C 69.545 400.036,330.455 400.036,330.700 399.300 C 330.792 399.025,331.126 398.800,331.444 398.800 C 332.213 398.800,335.600 395.386,335.600 394.611 C 335.600 394.275,335.780 394.000,336.000 394.000 C 336.220 394.000,336.400 393.460,336.400 392.800 C 336.400 392.140,336.580 391.600,336.800 391.600 C 337.035 391.600,337.200 390.200,337.200 388.200 C 337.200 386.200,337.035 384.800,336.800 384.800 C 336.580 384.800,336.400 384.260,336.400 383.600 C 336.400 382.940,336.220 382.400,336.000 382.400 C 335.780 382.400,335.600 382.144,335.600 381.832 C 335.600 381.092,332.108 377.600,331.368 377.600 C 331.056 377.600,330.800 377.420,330.800 377.200 C 330.800 376.980,330.440 376.800,330.000 376.800 C 329.560 376.800,329.200 376.640,329.200 376.444 C 329.200 376.249,328.975 376.097,328.700 376.107 C 328.425 376.118,326.715 376.098,324.900 376.063 L 321.600 376.000 321.600 345.424 C 321.600 325.471,321.461 314.761,321.200 314.600 C 320.980 314.464,320.787 313.958,320.772 313.476 C 320.745 312.631,320.731 312.629,320.400 313.400 C 320.110 314.074,320.052 313.998,320.028 312.920 C 320.011 312.145,319.724 311.479,319.300 311.232 C 318.915 311.008,318.733 310.819,318.896 310.812 C 319.411 310.791,317.847 309.200,317.311 309.200 C 317.030 309.200,316.800 309.009,316.800 308.776 C 316.800 308.543,316.635 308.455,316.432 308.580 C 316.230 308.705,315.793 308.536,315.461 308.204 C 315.129 307.872,314.484 307.600,314.029 307.600 C 313.573 307.600,313.200 307.420,313.200 307.200 C 313.200 306.980,312.930 306.800,312.600 306.800 C 312.270 306.800,312.000 306.620,312.000 306.400 C 312.000 305.891,311.475 305.885,310.971 306.389 M78.400 315.800 C 78.400 316.350,78.469 316.800,78.553 316.800 C 78.638 316.800,78.793 316.350,78.898 315.800 C 79.003 315.250,78.934 314.800,78.745 314.800 C 78.555 314.800,78.400 315.250,78.400 315.800 " stroke="none" fill="#8b4620" fill-rule="evenodd"></path><path id="path2" d="M62.700 0.272 C 61.655 0.366,60.800 0.614,60.800 0.822 C 60.800 1.030,60.260 1.200,59.600 1.200 C 58.940 1.200,58.400 1.380,58.400 1.600 C 58.400 1.820,57.961 2.000,57.424 2.000 C 56.887 2.000,56.336 2.180,56.200 2.400 C 56.064 2.620,55.603 2.800,55.176 2.800 C 54.749 2.800,54.400 2.980,54.400 3.200 C 54.400 3.420,54.040 3.600,53.600 3.600 C 53.160 3.600,52.800 3.780,52.800 4.000 C 52.800 4.220,52.440 4.400,52.000 4.400 C 51.560 4.400,51.200 4.550,51.200 4.732 C 51.200 4.915,50.705 5.315,50.100 5.620 C 48.823 6.265,45.862 8.453,45.667 8.897 C 45.593 9.064,45.321 9.200,45.062 9.200 C 44.558 9.200,38.800 15.014,38.800 15.522 C 38.800 15.688,38.440 16.083,38.000 16.400 C 37.560 16.717,37.200 17.207,37.200 17.488 C 37.200 17.770,37.020 18.000,36.800 18.000 C 36.580 18.000,36.400 18.270,36.400 18.600 C 36.400 18.930,36.220 19.200,36.000 19.200 C 35.780 19.200,35.600 19.478,35.600 19.817 C 35.600 20.156,35.240 20.820,34.800 21.292 C 34.360 21.764,34.000 22.387,34.000 22.675 C 34.000 22.964,33.820 23.200,33.600 23.200 C 33.380 23.200,33.200 23.472,33.200 23.805 C 33.200 24.138,32.992 24.813,32.738 25.305 C 31.744 27.226,31.600 27.616,31.600 28.371 C 31.600 28.801,31.441 29.251,31.246 29.371 C 31.051 29.492,30.775 30.177,30.631 30.895 C 30.487 31.613,30.180 33.100,29.948 34.200 C 29.302 37.267,29.045 51.680,29.570 55.400 C 29.818 57.160,30.080 59.500,30.152 60.600 C 30.223 61.700,30.389 62.870,30.519 63.200 C 30.649 63.530,30.846 64.700,30.956 65.800 C 31.528 71.499,31.723 72.800,32.008 72.800 C 32.179 72.800,32.428 73.610,32.560 74.600 C 32.692 75.590,32.908 77.210,33.040 78.200 C 33.172 79.190,33.442 80.000,33.640 80.000 C 33.838 80.000,34.000 80.630,34.000 81.400 C 34.000 82.170,34.180 82.800,34.400 82.800 C 34.620 82.800,34.800 83.419,34.800 84.176 C 34.800 84.933,34.980 85.664,35.200 85.800 C 35.420 85.936,35.600 86.577,35.600 87.224 C 35.600 87.871,35.780 88.400,36.000 88.400 C 36.220 88.400,36.400 88.940,36.400 89.600 C 36.400 90.260,36.580 90.800,36.800 90.800 C 37.020 90.800,37.200 91.160,37.200 91.600 C 37.200 92.040,37.380 92.400,37.600 92.400 C 37.820 92.400,38.000 93.019,38.000 93.776 C 38.000 94.533,38.180 95.264,38.400 95.400 C 38.620 95.536,38.800 95.997,38.800 96.424 C 38.800 96.851,38.980 97.200,39.200 97.200 C 39.420 97.200,39.600 97.555,39.600 97.988 C 39.600 98.421,39.960 99.417,40.400 100.200 C 40.840 100.983,41.200 101.889,41.200 102.212 C 41.200 102.535,41.380 102.800,41.600 102.800 C 41.820 102.800,42.000 103.250,42.000 103.800 C 42.000 104.350,42.180 104.800,42.400 104.800 C 42.620 104.800,42.800 105.087,42.800 105.439 C 42.800 106.001,46.266 113.081,46.796 113.600 C 46.999 113.799,48.516 116.578,49.360 118.297 C 49.602 118.790,49.935 119.195,50.100 119.197 C 50.265 119.199,50.400 119.442,50.400 119.738 C 50.400 120.034,50.760 120.602,51.200 121.000 C 51.640 121.398,52.000 121.966,52.000 122.262 C 52.000 122.558,52.180 122.800,52.400 122.800 C 52.620 122.800,52.800 123.070,52.800 123.400 C 52.800 123.730,52.980 124.000,53.200 124.000 C 53.420 124.000,53.600 124.270,53.600 124.600 C 53.600 124.930,53.750 125.200,53.932 125.200 C 54.115 125.200,54.520 125.695,54.832 126.300 C 55.145 126.905,55.805 127.813,56.300 128.318 C 56.795 128.823,57.203 129.363,57.206 129.518 C 57.210 129.673,57.927 130.610,58.800 131.600 C 59.673 132.590,60.390 133.520,60.394 133.667 C 60.397 133.814,61.255 134.834,62.300 135.934 C 63.345 137.034,64.560 138.318,65.000 138.786 C 67.133 141.056,74.580 148.000,74.881 148.000 C 75.069 148.000,75.803 148.540,76.511 149.199 C 78.842 151.367,80.698 152.800,81.176 152.800 C 81.435 152.800,81.536 152.980,81.400 153.200 C 81.264 153.420,81.351 153.600,81.593 153.600 C 82.029 153.600,84.081 154.939,85.118 155.900 C 85.414 156.175,86.004 156.400,86.429 156.400 C 86.853 156.400,87.200 156.558,87.200 156.751 C 87.200 156.945,87.740 157.327,88.400 157.600 C 89.060 157.873,89.600 158.255,89.600 158.449 C 89.600 158.642,89.960 158.800,90.400 158.800 C 90.840 158.800,91.200 158.980,91.200 159.200 C 91.200 159.420,91.560 159.600,92.000 159.600 C 92.440 159.600,92.800 159.780,92.800 160.000 C 92.800 160.220,93.160 160.400,93.600 160.400 C 94.040 160.400,94.400 160.580,94.400 160.800 C 94.400 161.020,94.760 161.200,95.200 161.200 C 95.640 161.200,96.000 161.336,96.000 161.502 C 96.000 161.669,96.585 162.040,97.300 162.329 C 98.015 162.617,98.913 163.021,99.295 163.226 C 99.677 163.432,100.262 163.600,100.595 163.600 C 100.928 163.600,101.200 163.780,101.200 164.000 C 101.200 164.220,101.661 164.400,102.224 164.400 C 102.804 164.400,103.140 164.573,103.000 164.800 C 102.856 165.033,103.255 165.200,103.953 165.200 C 104.613 165.200,105.264 165.380,105.400 165.600 C 105.536 165.820,106.087 166.000,106.624 166.000 C 107.161 166.000,107.600 166.180,107.600 166.400 C 107.600 166.620,107.963 166.800,108.406 166.800 C 109.533 166.800,112.400 167.731,112.400 168.097 C 112.400 168.264,112.645 168.400,112.943 168.400 C 113.872 168.400,117.475 172.109,118.359 173.975 C 119.269 175.895,119.609 182.400,118.800 182.400 C 118.580 182.400,118.400 182.732,118.400 183.138 C 118.400 183.544,118.040 184.202,117.600 184.600 C 117.160 184.998,116.800 185.484,116.800 185.680 C 116.800 186.185,114.923 188.000,114.401 188.000 C 114.162 188.000,113.580 188.360,113.108 188.800 C 112.636 189.240,111.833 189.600,111.325 189.600 C 110.816 189.600,110.400 189.780,110.400 190.000 C 110.400 190.524,105.324 190.524,105.000 190.000 C 104.688 189.494,98.226 189.472,97.295 189.974 C 96.913 190.179,96.028 190.578,95.329 190.859 C 94.630 191.140,94.145 191.512,94.252 191.685 C 94.360 191.858,94.154 192.000,93.795 192.000 C 93.045 192.000,92.000 192.929,92.000 193.595 C 92.000 193.844,91.820 193.936,91.600 193.800 C 91.380 193.664,91.200 193.923,91.200 194.376 C 91.200 194.829,91.020 195.200,90.800 195.200 C 90.580 195.200,90.400 195.470,90.400 195.800 C 90.400 196.130,90.220 196.400,90.000 196.400 C 89.780 196.400,89.600 196.839,89.600 197.376 C 89.600 197.913,89.420 198.464,89.200 198.600 C 88.679 198.922,88.679 204.278,89.200 204.600 C 89.420 204.736,89.600 205.377,89.600 206.024 C 89.600 206.671,89.780 207.200,90.000 207.200 C 90.220 207.200,90.400 207.475,90.400 207.811 C 90.400 208.649,93.556 211.737,95.121 212.429 C 95.824 212.741,96.400 213.131,96.400 213.298 C 96.400 213.464,97.041 213.600,97.824 213.600 C 98.607 213.600,99.156 213.748,99.044 213.929 C 98.932 214.111,99.762 214.301,100.889 214.352 C 102.016 214.404,103.255 214.616,103.643 214.823 C 104.585 215.327,111.486 215.307,111.800 214.800 C 111.936 214.580,113.127 214.400,114.447 214.400 C 115.945 214.400,116.754 214.250,116.600 214.000 C 116.456 213.767,116.855 213.600,117.553 213.600 C 118.213 213.600,118.864 213.420,119.000 213.200 C 119.136 212.980,119.687 212.800,120.224 212.800 C 120.761 212.800,121.200 212.620,121.200 212.400 C 121.200 212.180,121.661 212.000,122.224 212.000 C 122.804 212.000,123.140 211.827,123.000 211.600 C 122.864 211.380,123.036 211.200,123.382 211.200 C 123.956 211.200,125.514 210.486,126.000 210.000 C 126.110 209.890,126.605 209.575,127.100 209.300 C 130.161 207.599,130.056 207.683,134.500 203.393 C 136.205 201.747,137.600 200.233,137.600 200.029 C 137.600 199.824,137.825 199.416,138.100 199.121 C 138.901 198.263,140.000 196.132,140.000 195.438 C 140.000 195.087,140.192 194.800,140.427 194.800 C 141.758 194.800,140.181 192.444,135.918 188.064 C 124.768 176.607,116.945 162.767,113.361 148.157 C 111.799 141.792,111.785 141.764,109.479 140.615 C 108.359 140.057,107.208 139.600,106.921 139.600 C 106.635 139.600,106.400 139.420,106.400 139.200 C 106.400 138.980,106.130 138.800,105.800 138.800 C 105.470 138.800,105.200 138.620,105.200 138.400 C 105.200 138.180,104.855 138.000,104.433 138.000 C 104.012 138.000,103.607 137.865,103.533 137.700 C 103.460 137.535,102.561 136.979,101.537 136.464 C 100.512 135.949,99.304 135.184,98.853 134.764 C 98.402 134.344,97.846 134.000,97.617 134.000 C 97.388 134.000,97.200 133.820,97.200 133.600 C 97.200 133.380,96.930 133.200,96.600 133.200 C 96.270 133.200,96.000 133.020,96.000 132.800 C 96.000 132.580,95.740 132.400,95.423 132.400 C 95.105 132.400,94.562 131.995,94.215 131.500 C 93.868 131.005,93.481 130.664,93.355 130.743 C 93.100 130.903,89.947 128.300,87.249 125.700 C 86.278 124.765,85.407 124.000,85.313 124.000 C 85.020 124.000,84.001 122.873,83.983 122.529 C 83.974 122.348,83.434 121.758,82.783 121.219 C 82.132 120.679,81.600 120.111,81.600 119.955 C 81.600 119.800,80.835 118.871,79.900 117.890 C 77.829 115.716,76.800 114.473,76.800 114.142 C 76.800 114.006,76.466 113.603,76.057 113.247 C 75.649 112.891,75.201 112.240,75.062 111.800 C 74.923 111.360,74.367 110.524,73.828 109.943 C 73.289 109.362,72.957 108.777,73.090 108.643 C 73.224 108.509,73.123 108.400,72.867 108.400 C 72.610 108.400,72.400 108.164,72.400 107.875 C 72.400 107.587,72.085 106.995,71.700 106.560 C 71.315 106.125,70.941 105.506,70.870 105.184 C 70.798 104.863,70.573 104.540,70.370 104.467 C 70.166 104.393,70.000 104.093,70.000 103.800 C 70.000 103.507,69.863 103.207,69.696 103.133 C 69.279 102.950,65.993 96.326,65.997 95.676 C 65.999 95.388,65.839 95.252,65.643 95.373 C 65.447 95.495,65.048 94.785,64.756 93.797 C 64.464 92.809,64.085 92.000,63.913 92.000 C 63.741 92.000,63.600 91.640,63.600 91.200 C 63.600 90.760,63.420 90.400,63.200 90.400 C 62.980 90.400,62.800 89.860,62.800 89.200 C 62.800 88.540,62.653 88.000,62.472 88.000 C 62.292 88.000,61.896 87.089,61.593 85.975 C 61.290 84.861,60.897 83.860,60.721 83.751 C 60.544 83.642,60.400 83.113,60.400 82.576 C 60.400 82.039,60.220 81.600,60.000 81.600 C 59.780 81.600,59.600 81.060,59.600 80.400 C 59.600 79.740,59.420 79.200,59.200 79.200 C 58.980 79.200,58.800 78.770,58.800 78.244 C 58.800 77.718,58.377 75.603,57.861 73.544 C 56.806 69.338,56.001 65.237,55.855 63.311 C 55.800 62.603,55.631 61.898,55.478 61.745 C 55.325 61.592,55.200 60.357,55.200 59.000 C 55.200 57.643,55.075 56.408,54.922 56.255 C 54.234 55.567,54.098 37.901,54.778 37.674 C 55.010 37.597,55.200 37.222,55.200 36.842 C 55.200 34.546,61.253 26.800,63.046 26.800 C 63.351 26.800,63.600 26.620,63.600 26.400 C 63.600 26.180,63.960 26.000,64.400 26.000 C 64.840 26.000,65.200 25.840,65.200 25.645 C 65.200 25.450,65.785 25.184,66.500 25.053 C 67.215 24.922,68.430 24.698,69.200 24.556 C 72.435 23.957,80.314 24.769,79.772 25.645 C 79.652 25.840,79.931 26.000,80.393 26.000 C 80.855 26.000,81.620 26.360,82.092 26.800 C 82.564 27.240,83.198 27.600,83.499 27.600 C 83.801 27.600,83.936 27.780,83.800 28.000 C 83.664 28.220,83.790 28.400,84.079 28.400 C 84.666 28.400,87.200 31.009,87.200 31.613 C 87.200 31.826,87.380 32.000,87.600 32.000 C 87.820 32.000,88.000 32.270,88.000 32.600 C 88.000 32.930,88.180 33.200,88.400 33.200 C 88.620 33.200,88.800 33.560,88.800 34.000 C 88.800 34.440,88.980 34.800,89.200 34.800 C 89.420 34.800,89.600 35.160,89.600 35.600 C 89.600 36.040,89.780 36.400,90.000 36.400 C 90.220 36.400,90.400 37.030,90.400 37.800 C 90.400 38.570,90.580 39.200,90.800 39.200 C 91.033 39.200,91.200 40.533,91.200 42.400 C 91.200 44.160,91.341 45.600,91.513 45.600 C 91.685 45.600,91.866 46.095,91.916 46.700 C 91.966 47.305,92.185 47.860,92.403 47.933 C 92.622 48.007,92.800 48.412,92.800 48.833 C 92.800 49.255,92.950 49.600,93.132 49.600 C 93.315 49.600,93.686 50.014,93.957 50.520 C 95.645 53.674,105.280 56.936,106.600 54.800 C 106.736 54.580,107.287 54.400,107.824 54.400 C 108.361 54.400,108.800 54.220,108.800 54.000 C 108.800 53.780,109.049 53.600,109.353 53.600 C 110.301 53.600,110.389 52.209,110.388 37.200 C 110.388 25.712,110.267 22.216,109.821 20.800 C 109.509 19.810,109.240 19.180,109.223 19.400 C 109.206 19.620,108.707 18.990,108.114 18.000 C 107.078 16.269,105.528 14.352,103.767 12.619 C 101.026 9.924,98.296 7.600,97.870 7.600 C 97.598 7.600,97.117 7.240,96.800 6.800 C 96.483 6.360,95.986 6.000,95.695 6.000 C 95.404 6.000,94.780 5.640,94.308 5.200 C 93.836 4.760,93.213 4.400,92.925 4.400 C 92.636 4.400,92.400 4.220,92.400 4.000 C 92.400 3.780,91.815 3.597,91.100 3.594 C 90.114 3.589,89.945 3.494,90.400 3.200 C 90.868 2.898,90.757 2.811,89.900 2.806 C 89.295 2.803,88.800 2.620,88.800 2.400 C 88.800 2.180,88.498 2.000,88.128 2.000 C 87.307 2.000,84.887 1.257,83.800 0.670 C 82.996 0.237,66.521 -0.075,62.700 0.272 M199.903 28.089 L 199.800 56.200 196.909 56.458 C 189.527 57.118,181.194 61.391,176.921 66.707 C 176.084 67.748,175.203 68.809,174.962 69.066 C 173.843 70.260,171.143 76.195,170.350 79.206 C 166.020 95.652,188.373 101.246,193.214 84.927 C 194.003 82.267,198.608 78.742,199.773 79.906 C 199.898 80.031,200.000 84.523,200.000 89.889 L 200.000 99.644 198.414 101.922 C 197.541 103.175,196.079 105.280,195.164 106.600 C 194.250 107.920,192.567 110.260,191.424 111.800 C 190.282 113.340,188.374 115.950,187.184 117.600 C 185.994 119.250,184.921 120.690,184.800 120.800 C 184.194 121.349,176.281 132.133,174.846 134.365 C 169.803 142.206,172.618 150.441,181.400 153.541 C 182.351 153.877,190.998 154.295,198.900 154.387 L 200.000 154.400 200.000 186.983 L 200.000 219.567 183.300 219.760 C 165.423 219.967,164.352 220.015,162.771 220.688 C 161.367 221.286,158.400 224.192,158.400 224.969 C 158.400 225.316,158.220 225.600,158.000 225.600 C 157.780 225.600,157.600 225.960,157.600 226.400 C 157.600 226.840,157.420 227.200,157.200 227.200 C 156.319 227.200,156.726 235.381,157.700 237.262 C 158.676 239.147,161.039 241.600,161.878 241.600 C 162.165 241.600,162.401 241.735,162.403 241.900 C 162.414 242.968,164.996 243.138,181.908 243.183 C 191.523 243.209,199.528 243.368,199.698 243.538 C 199.867 243.707,199.959 257.875,199.902 275.022 L 199.800 306.200 164.738 306.200 C 145.454 306.200,129.760 306.335,129.862 306.500 C 130.153 306.972,199.908 306.873,200.200 306.400 C 200.362 306.138,212.523 306.000,235.381 306.000 C 271.052 306.000,272.567 305.939,270.383 304.589 C 270.172 304.459,270.000 303.658,270.000 302.810 C 270.000 301.961,269.816 301.205,269.591 301.130 C 269.367 301.056,269.158 300.321,269.127 299.497 C 269.096 298.674,268.920 298.000,268.735 298.000 C 268.551 298.000,268.400 297.550,268.400 297.000 C 268.400 296.450,268.220 296.000,268.000 296.000 C 267.780 296.000,267.600 295.460,267.600 294.800 C 267.600 294.140,267.420 293.600,267.200 293.600 C 266.980 293.600,266.800 293.161,266.800 292.624 C 266.800 292.087,266.620 291.536,266.400 291.400 C 266.180 291.264,266.000 290.803,266.000 290.376 C 266.000 289.949,265.854 289.600,265.675 289.600 C 265.496 289.600,265.102 288.970,264.800 288.200 C 264.498 287.430,264.104 286.800,263.925 286.800 C 263.746 286.800,263.600 286.365,263.600 285.833 C 263.600 285.302,263.434 284.807,263.230 284.733 C 263.027 284.660,262.802 284.334,262.730 284.010 C 262.659 283.685,262.373 283.175,262.096 282.877 C 261.819 282.579,261.675 282.203,261.775 282.041 C 261.875 281.878,261.607 281.493,261.179 281.185 C 260.750 280.876,260.400 280.315,260.400 279.939 C 260.400 279.562,260.040 279.140,259.600 279.000 C 259.160 278.860,258.800 278.435,258.800 278.054 C 258.800 277.371,258.381 276.715,256.375 274.257 C 255.810 273.565,254.942 272.413,254.444 271.695 C 253.946 270.978,253.368 270.496,253.160 270.625 C 252.951 270.754,252.830 270.686,252.890 270.473 C 252.995 270.103,249.433 266.000,249.006 266.000 C 248.893 266.000,248.477 265.685,248.082 265.300 C 247.004 264.249,244.080 261.936,243.845 261.948 C 243.732 261.953,243.072 261.427,242.377 260.779 C 241.683 260.131,240.859 259.600,240.545 259.600 C 240.232 259.600,239.871 259.330,239.745 259.000 C 239.618 258.670,239.264 258.400,238.957 258.400 C 238.651 258.400,238.400 258.220,238.400 258.000 C 238.400 257.780,238.130 257.600,237.800 257.600 C 237.470 257.600,237.200 257.420,237.200 257.200 C 237.200 256.980,236.844 256.800,236.409 256.800 C 235.657 256.800,235.614 256.469,235.509 249.975 L 235.400 243.151 217.694 243.187 L 199.988 243.223 200.094 231.512 L 200.200 219.800 216.400 219.800 C 225.310 219.800,233.275 219.955,234.100 220.145 L 235.600 220.489 235.600 214.687 C 235.600 208.748,235.644 208.569,237.200 208.225 C 237.951 208.059,242.344 205.691,242.975 205.111 C 243.402 204.720,244.077 204.400,244.475 204.400 C 244.874 204.400,245.200 204.220,245.200 204.000 C 245.200 203.780,245.470 203.600,245.800 203.600 C 246.130 203.600,246.400 203.420,246.400 203.200 C 246.400 202.980,246.771 202.800,247.224 202.800 C 247.677 202.800,247.936 202.620,247.800 202.400 C 247.662 202.177,247.966 202.000,248.488 202.000 C 249.003 202.000,249.683 201.640,250.000 201.200 C 250.317 200.760,250.807 200.400,251.088 200.400 C 251.370 200.400,251.600 200.220,251.600 200.000 C 251.600 199.780,251.830 199.600,252.112 199.600 C 252.393 199.600,252.883 199.240,253.200 198.800 C 253.517 198.360,254.025 198.000,254.328 198.000 C 254.631 198.000,255.383 197.460,256.000 196.800 C 256.617 196.140,257.276 195.600,257.466 195.600 C 257.655 195.600,258.166 195.105,258.600 194.500 C 259.035 193.895,261.373 191.329,263.795 188.797 C 272.694 179.498,278.187 171.381,282.606 161.000 C 282.981 160.120,283.538 158.877,283.844 158.239 C 284.150 157.600,284.400 156.755,284.400 156.362 C 284.400 155.969,284.559 155.549,284.752 155.430 C 284.946 155.310,285.203 154.804,285.324 154.306 C 285.531 153.456,285.772 152.590,286.830 148.900 C 287.067 148.075,287.413 146.680,287.600 145.800 C 288.278 142.607,288.750 141.078,289.131 140.841 C 289.345 140.709,289.594 139.520,289.684 138.200 C 289.774 136.880,290.003 135.455,290.192 135.034 C 290.463 134.430,290.416 134.341,289.968 134.611 C 289.489 134.900,289.483 134.851,289.932 134.297 C 290.468 133.636,290.521 8.400,289.985 8.400 C 289.867 8.400,289.740 7.998,289.703 7.506 C 289.666 7.014,289.448 6.549,289.218 6.473 C 288.988 6.396,288.800 5.982,288.800 5.553 C 288.800 4.730,286.334 2.000,285.590 2.000 C 285.349 2.000,285.264 1.820,285.400 1.600 C 285.536 1.380,285.292 1.200,284.857 1.200 C 284.422 1.200,283.992 0.975,283.900 0.700 C 283.769 0.305,274.926 0.177,241.869 0.089 L 200.005 -0.021 199.903 28.089 M208.800 57.588 C 223.588 62.394,232.565 76.896,229.795 91.503 C 228.286 99.453,224.765 105.823,212.274 123.200 L 207.242 130.200 215.521 130.443 C 224.477 130.707,225.445 130.851,227.674 132.251 C 235.427 137.122,235.234 148.717,227.336 152.544 C 226.491 152.954,225.529 153.423,225.198 153.586 C 224.867 153.750,219.107 153.955,212.398 154.042 L 200.200 154.200 200.200 126.762 L 200.200 99.324 202.034 96.562 C 208.396 86.982,208.011 82.158,200.700 79.846 C 200.054 79.642,200.000 78.718,200.000 67.955 L 200.000 56.286 203.100 56.514 C 204.805 56.640,207.370 57.123,208.800 57.588 " stroke="none" fill="#c4cbf3" fill-rule="evenodd"></path><path id="path3" d="M317.800 0.274 C 316.920 0.373,316.029 0.621,315.820 0.827 C 315.611 1.032,314.936 1.200,314.320 1.200 C 313.704 1.200,313.200 1.380,313.200 1.600 C 313.200 1.820,312.750 2.000,312.200 2.000 C 311.650 2.000,311.200 2.180,311.200 2.400 C 311.200 2.620,310.750 2.800,310.200 2.800 C 309.650 2.800,309.200 2.980,309.200 3.200 C 309.200 3.420,308.840 3.600,308.400 3.600 C 307.960 3.600,307.600 3.780,307.600 4.000 C 307.600 4.220,307.280 4.400,306.888 4.400 C 306.497 4.400,305.917 4.760,305.600 5.200 C 305.283 5.640,304.703 6.000,304.312 6.000 C 303.920 6.000,303.600 6.180,303.600 6.400 C 303.600 6.620,303.375 6.802,303.100 6.805 C 301.767 6.818,292.449 15.939,292.075 17.595 C 292.006 17.900,291.556 18.491,291.075 18.908 C 290.201 19.666,290.200 19.684,290.200 36.472 L 290.200 53.278 291.911 54.239 C 293.259 54.997,294.208 55.200,296.392 55.200 C 298.977 55.200,299.843 55.005,302.394 53.850 C 304.464 52.913,307.600 49.768,307.600 48.630 C 307.600 48.320,307.808 47.997,308.062 47.913 C 308.357 47.814,308.593 46.206,308.715 43.479 C 308.819 41.126,309.061 39.200,309.252 39.200 C 309.444 39.200,309.600 38.660,309.600 38.000 C 309.600 37.340,309.780 36.800,310.000 36.800 C 310.220 36.800,310.400 36.350,310.400 35.800 C 310.400 35.250,310.580 34.800,310.800 34.800 C 311.020 34.800,311.200 34.480,311.200 34.088 C 311.200 33.697,311.560 33.117,312.000 32.800 C 312.440 32.483,312.800 32.015,312.800 31.760 C 312.800 31.203,315.842 28.000,316.371 28.000 C 316.576 28.000,316.981 27.775,317.271 27.500 C 319.561 25.334,325.606 23.881,329.600 24.535 C 330.150 24.625,331.545 24.835,332.700 25.001 C 333.855 25.167,334.800 25.460,334.800 25.652 C 334.800 25.843,335.160 26.000,335.600 26.000 C 336.040 26.000,336.400 26.150,336.400 26.332 C 336.400 26.515,336.895 26.920,337.500 27.232 C 338.774 27.890,342.800 31.908,342.800 32.522 C 342.800 32.750,343.048 33.221,343.351 33.569 C 346.386 37.047,346.307 53.815,343.185 68.600 C 342.953 69.700,342.684 71.050,342.588 71.600 C 342.491 72.150,342.217 73.410,341.977 74.400 C 341.738 75.390,341.446 76.785,341.327 77.500 C 341.209 78.215,340.952 78.800,340.756 78.800 C 340.560 78.800,340.400 79.329,340.400 79.976 C 340.400 80.623,340.220 81.264,340.000 81.400 C 339.780 81.536,339.600 81.999,339.600 82.429 C 339.600 82.859,339.420 83.568,339.200 84.005 C 338.980 84.442,338.620 85.158,338.400 85.595 C 338.180 86.032,338.000 86.752,338.000 87.195 C 338.000 87.638,337.853 88.000,337.672 88.000 C 337.492 88.000,337.100 88.900,336.800 90.000 C 336.500 91.100,336.108 92.000,335.928 92.000 C 335.747 92.000,335.600 92.360,335.600 92.800 C 335.600 93.240,335.420 93.600,335.200 93.600 C 334.980 93.600,334.800 93.853,334.800 94.162 C 334.800 94.685,333.254 97.953,332.795 98.400 C 332.682 98.510,332.142 99.500,331.595 100.600 C 331.048 101.700,330.465 102.660,330.300 102.733 C 330.135 102.807,330.000 103.197,330.000 103.600 C 330.000 104.003,329.858 104.393,329.685 104.467 C 329.512 104.540,328.882 105.442,328.285 106.472 C 327.688 107.501,326.975 108.584,326.700 108.878 C 326.425 109.172,325.857 110.084,325.437 110.906 C 325.017 111.728,324.522 112.400,324.337 112.400 C 324.152 112.400,324.000 112.604,324.000 112.853 C 324.000 113.102,323.676 113.597,323.281 113.953 C 322.886 114.309,322.123 115.230,321.586 116.000 C 321.049 116.770,319.707 118.311,318.605 119.424 C 317.502 120.537,315.946 122.202,315.146 123.124 C 314.346 124.046,313.604 124.800,313.498 124.800 C 313.392 124.800,312.336 125.752,311.152 126.916 C 309.969 128.080,308.370 129.466,307.600 129.997 C 306.830 130.528,305.930 131.242,305.600 131.584 C 305.270 131.926,304.505 132.460,303.900 132.770 C 303.295 133.081,302.800 133.485,302.800 133.668 C 302.800 133.850,302.564 134.000,302.275 134.000 C 301.987 134.000,301.364 134.360,300.892 134.800 C 300.420 135.240,299.838 135.600,299.600 135.600 C 299.362 135.600,298.780 135.960,298.308 136.400 C 297.836 136.840,297.213 137.200,296.925 137.200 C 296.636 137.200,296.400 137.380,296.400 137.600 C 296.400 137.820,296.040 138.000,295.600 138.000 C 295.160 138.000,294.800 138.146,294.800 138.325 C 294.800 138.504,294.170 138.898,293.400 139.200 C 292.630 139.502,292.000 139.896,292.000 140.075 C 292.000 140.254,291.488 140.400,290.862 140.400 C 290.236 140.400,289.450 140.715,289.114 141.100 C 288.530 141.771,288.393 142.199,287.609 145.800 C 287.417 146.680,287.077 148.030,286.853 148.800 C 286.151 151.212,285.553 153.365,285.324 154.306 C 285.203 154.804,284.946 155.310,284.752 155.430 C 284.559 155.549,284.400 155.969,284.400 156.362 C 284.400 156.755,284.150 157.600,283.844 158.239 C 283.538 158.877,282.981 160.120,282.606 161.000 C 278.146 171.477,272.607 179.636,263.700 188.849 C 259.469 193.225,258.773 194.239,259.500 194.967 C 259.665 195.132,259.812 195.387,259.826 195.533 C 259.889 196.168,261.378 198.800,261.674 198.800 C 261.853 198.800,262.000 199.080,262.000 199.423 C 262.000 200.287,270.245 208.346,271.434 208.644 C 271.965 208.778,272.400 209.047,272.400 209.243 C 272.400 209.440,272.720 209.600,273.112 209.600 C 273.503 209.600,274.083 209.960,274.400 210.400 C 274.717 210.840,275.297 211.200,275.688 211.200 C 276.080 211.200,276.400 211.380,276.400 211.600 C 276.400 211.820,276.850 212.000,277.400 212.000 C 277.950 212.000,278.400 212.180,278.400 212.400 C 278.400 212.620,278.850 212.800,279.400 212.800 C 279.950 212.800,280.400 212.980,280.400 213.200 C 280.400 213.420,281.030 213.600,281.800 213.600 C 282.570 213.600,283.200 213.780,283.200 214.000 C 283.200 214.222,284.267 214.400,285.600 214.400 C 286.933 214.400,288.000 214.578,288.000 214.800 C 288.000 215.042,289.725 215.200,292.376 215.200 C 294.863 215.200,296.860 215.027,297.000 214.800 C 297.136 214.580,298.137 214.400,299.224 214.400 C 300.311 214.400,301.200 214.220,301.200 214.000 C 301.200 213.780,301.619 213.600,302.132 213.600 C 303.252 213.600,306.892 211.826,306.525 211.459 C 306.383 211.316,306.527 211.200,306.845 211.200 C 307.163 211.200,307.688 210.818,308.012 210.351 C 308.335 209.884,308.780 209.292,309.000 209.036 C 309.784 208.121,310.400 206.799,310.400 206.029 C 310.400 205.599,310.580 205.136,310.800 205.000 C 311.020 204.864,311.200 203.323,311.200 201.576 C 311.200 199.725,311.033 198.400,310.800 198.400 C 310.580 198.400,310.400 197.860,310.400 197.200 C 310.400 196.540,310.220 196.000,310.000 196.000 C 309.780 196.000,309.600 195.730,309.600 195.400 C 309.600 195.070,309.420 194.800,309.200 194.800 C 308.980 194.800,308.800 194.612,308.800 194.382 C 308.800 193.839,306.961 192.000,306.418 192.000 C 306.188 192.000,306.000 191.820,306.000 191.600 C 306.000 191.380,305.730 191.200,305.400 191.200 C 305.070 191.200,304.800 191.020,304.800 190.800 C 304.800 190.580,304.350 190.400,303.800 190.400 C 303.250 190.400,302.800 190.220,302.800 190.000 C 302.800 189.469,294.928 189.469,294.600 190.000 C 294.277 190.522,290.000 190.522,290.000 190.000 C 290.000 189.780,289.676 189.600,289.280 189.600 C 288.386 189.600,286.407 188.706,286.403 188.300 C 286.401 188.135,286.130 188.000,285.800 188.000 C 285.470 188.000,285.200 187.820,285.200 187.600 C 285.200 187.380,284.972 187.200,284.694 187.200 C 284.416 187.200,283.744 186.480,283.200 185.600 C 282.656 184.720,282.074 184.000,281.906 184.000 C 281.738 184.000,281.600 183.561,281.600 183.024 C 281.600 182.487,281.420 181.936,281.200 181.800 C 280.980 181.664,280.800 180.123,280.800 178.376 C 280.800 176.525,280.967 175.200,281.200 175.200 C 281.420 175.200,281.600 174.840,281.600 174.400 C 281.600 173.960,281.780 173.600,282.000 173.600 C 282.220 173.600,282.400 173.352,282.400 173.048 C 282.400 172.410,285.403 169.200,286.000 169.200 C 286.220 169.200,286.400 169.020,286.400 168.800 C 286.400 168.580,286.760 168.400,287.200 168.400 C 287.640 168.400,288.000 168.220,288.000 168.000 C 288.000 167.780,288.450 167.600,289.000 167.600 C 289.550 167.600,290.000 167.420,290.000 167.200 C 290.000 166.980,290.540 166.800,291.200 166.800 C 291.860 166.800,292.400 166.620,292.400 166.400 C 292.400 166.180,292.940 166.000,293.600 166.000 C 294.260 166.000,294.800 165.820,294.800 165.600 C 294.800 165.380,295.340 165.200,296.000 165.200 C 296.660 165.200,297.200 165.020,297.200 164.800 C 297.200 164.580,297.472 164.400,297.805 164.400 C 298.138 164.400,298.768 164.220,299.205 164.000 C 299.642 163.780,300.358 163.420,300.795 163.200 C 301.232 162.980,301.862 162.800,302.195 162.800 C 302.528 162.800,302.800 162.620,302.800 162.400 C 302.800 162.180,303.160 162.000,303.600 162.000 C 304.040 162.000,304.400 161.820,304.400 161.600 C 304.400 161.380,304.760 161.200,305.200 161.200 C 305.640 161.200,306.000 161.054,306.000 160.875 C 306.000 160.696,306.630 160.302,307.400 160.000 C 308.170 159.698,308.800 159.304,308.800 159.125 C 308.800 158.946,309.115 158.799,309.500 158.797 C 309.885 158.796,310.740 158.430,311.400 157.985 C 312.060 157.539,313.185 156.890,313.900 156.542 C 314.615 156.194,315.200 155.771,315.200 155.603 C 315.200 155.435,315.740 155.073,316.400 154.800 C 317.060 154.527,317.600 154.145,317.600 153.951 C 317.600 153.758,317.836 153.600,318.125 153.600 C 318.413 153.600,319.004 153.285,319.438 152.900 C 319.873 152.515,321.032 151.572,322.014 150.806 C 325.024 148.455,325.197 148.303,328.836 144.800 C 330.778 142.930,333.590 140.229,335.084 138.798 C 337.759 136.235,339.023 134.824,340.600 132.642 C 341.040 132.033,341.805 131.055,342.300 130.468 C 342.794 129.880,343.199 129.263,343.200 129.096 C 343.200 128.929,343.740 128.228,344.400 127.537 C 345.060 126.846,345.600 126.038,345.600 125.741 C 345.600 125.443,345.738 125.200,345.906 125.200 C 346.074 125.200,346.656 124.480,347.200 123.600 C 347.744 122.720,348.326 122.000,348.494 122.000 C 348.662 122.000,348.800 121.745,348.800 121.433 C 348.800 121.122,348.935 120.807,349.100 120.733 C 349.476 120.566,350.775 118.436,351.071 117.500 C 351.193 117.115,351.452 116.800,351.647 116.800 C 351.841 116.800,352.000 116.440,352.000 116.000 C 352.000 115.560,352.137 115.200,352.304 115.200 C 352.472 115.200,353.237 113.985,354.004 112.500 C 354.772 111.015,355.535 109.740,355.700 109.667 C 355.865 109.593,356.000 109.323,356.000 109.065 C 356.000 108.808,356.630 107.299,357.400 105.711 C 358.170 104.124,358.800 102.460,358.800 102.013 C 358.800 101.566,358.980 101.200,359.200 101.200 C 359.420 101.200,359.600 100.840,359.600 100.400 C 359.600 99.960,359.780 99.600,360.000 99.600 C 360.220 99.600,360.400 99.060,360.400 98.400 C 360.400 97.740,360.580 97.200,360.800 97.200 C 361.020 97.200,361.200 96.840,361.200 96.400 C 361.200 95.960,361.380 95.600,361.600 95.600 C 361.820 95.600,362.000 95.060,362.000 94.400 C 362.000 93.740,362.180 93.200,362.400 93.200 C 362.620 93.200,362.800 92.660,362.800 92.000 C 362.800 91.340,362.980 90.800,363.200 90.800 C 363.420 90.800,363.600 90.260,363.600 89.600 C 363.600 88.940,363.780 88.400,364.000 88.400 C 364.220 88.400,364.400 87.871,364.400 87.224 C 364.400 86.577,364.580 85.936,364.800 85.800 C 365.020 85.664,365.200 85.023,365.200 84.376 C 365.200 83.729,365.380 83.200,365.600 83.200 C 365.820 83.200,366.000 82.480,366.000 81.600 C 366.000 80.720,366.180 80.000,366.400 80.000 C 366.620 80.000,366.800 79.291,366.800 78.424 C 366.800 77.557,366.980 76.736,367.200 76.600 C 367.420 76.464,367.600 75.654,367.600 74.800 C 367.600 73.946,367.780 73.136,368.000 73.000 C 368.220 72.864,368.400 71.874,368.400 70.800 C 368.400 69.726,368.580 68.736,368.800 68.600 C 369.020 68.464,369.200 67.294,369.200 66.000 C 369.200 64.706,369.380 63.536,369.600 63.400 C 369.820 63.264,370.000 61.644,370.000 59.800 C 370.000 57.956,370.180 56.336,370.400 56.200 C 370.650 56.046,370.800 52.137,370.800 45.800 C 370.800 39.463,370.650 35.554,370.400 35.400 C 370.180 35.264,370.000 34.454,370.000 33.600 C 370.000 32.746,369.820 31.936,369.600 31.800 C 369.380 31.664,369.200 30.933,369.200 30.176 C 369.200 29.419,369.053 28.800,368.872 28.800 C 368.692 28.800,368.300 27.900,368.000 26.800 C 367.700 25.700,367.308 24.800,367.128 24.800 C 366.947 24.800,366.800 24.440,366.800 24.000 C 366.800 23.560,366.620 23.200,366.400 23.200 C 366.180 23.200,366.000 22.840,366.000 22.400 C 366.000 21.960,365.820 21.600,365.600 21.600 C 365.380 21.600,365.200 21.280,365.200 20.888 C 365.200 20.497,364.840 19.917,364.400 19.600 C 363.960 19.283,363.600 18.791,363.600 18.508 C 363.600 18.225,363.060 17.428,362.400 16.737 C 361.740 16.046,361.200 15.303,361.200 15.084 C 361.200 14.559,354.854 8.400,354.313 8.400 C 354.083 8.400,353.603 8.084,353.247 7.697 C 352.891 7.311,352.105 6.740,351.500 6.430 C 350.895 6.119,350.400 5.715,350.400 5.532 C 350.400 5.350,350.040 5.200,349.600 5.200 C 349.160 5.200,348.800 5.020,348.800 4.800 C 348.800 4.580,348.440 4.400,348.000 4.400 C 347.560 4.400,347.200 4.220,347.200 4.000 C 347.200 3.780,346.840 3.600,346.400 3.600 C 345.960 3.600,345.600 3.420,345.600 3.200 C 345.600 2.980,345.240 2.800,344.800 2.800 C 344.360 2.800,344.000 2.620,344.000 2.400 C 344.000 2.180,343.460 2.000,342.800 2.000 C 342.140 2.000,341.600 1.820,341.600 1.600 C 341.600 1.380,341.096 1.200,340.480 1.200 C 339.864 1.200,339.135 0.975,338.860 0.700 C 338.358 0.198,321.513 -0.143,317.800 0.274 M200.000 67.955 C 200.000 78.718,200.054 79.642,200.700 79.846 C 208.011 82.158,208.396 86.982,202.034 96.562 L 200.200 99.324 200.200 126.762 L 200.200 154.200 212.398 154.042 C 219.107 153.955,224.867 153.750,225.198 153.586 C 225.529 153.423,226.491 152.954,227.336 152.544 C 235.234 148.717,235.427 137.122,227.674 132.251 C 225.445 130.851,224.477 130.707,215.521 130.443 L 207.242 130.200 212.274 123.200 C 224.765 105.823,228.286 99.453,229.795 91.503 C 232.973 74.750,220.010 57.760,203.100 56.514 L 200.000 56.286 200.000 67.955 M200.283 219.850 C 200.127 220.006,200.000 225.328,200.000 231.677 L 200.000 243.220 218.200 243.188 C 228.210 243.170,236.400 243.022,236.400 242.860 C 236.400 242.697,237.190 242.238,238.156 241.840 C 239.793 241.165,241.600 239.369,241.600 238.416 C 241.600 238.187,241.780 238.000,242.000 238.000 C 242.220 238.000,242.400 237.550,242.400 237.000 C 242.400 236.450,242.580 236.000,242.800 236.000 C 243.394 236.000,243.308 227.991,242.700 226.683 C 242.425 226.091,242.065 225.605,241.900 225.603 C 241.735 225.601,241.600 225.267,241.600 224.859 C 241.600 224.076,239.470 221.600,238.797 221.600 C 238.578 221.600,238.400 221.420,238.400 221.200 C 238.400 220.980,238.130 220.800,237.800 220.800 C 237.470 220.800,237.200 220.628,237.200 220.419 C 237.200 220.209,236.435 220.022,235.500 220.003 C 221.601 219.724,200.501 219.632,200.283 219.850 M200.200 306.400 C 199.866 306.941,269.163 306.941,270.000 306.400 C 270.390 306.148,258.317 306.010,235.524 306.006 C 212.564 306.002,200.362 306.138,200.200 306.400 " stroke="none" fill="#acb4ec" fill-rule="evenodd"></path><path id="path4" d="M117.200 0.261 C 115.074 0.961,113.437 2.266,112.000 4.405 C 111.670 4.896,111.175 5.533,110.900 5.820 C 110.625 6.108,110.400 6.615,110.400 6.948 C 110.400 7.281,110.224 7.661,110.010 7.794 C 109.768 7.944,109.698 10.644,109.827 14.917 C 110.062 22.742,110.061 35.887,109.815 94.384 C 109.720 117.146,109.796 135.956,109.985 136.184 C 110.173 136.413,110.378 137.410,110.440 138.400 C 110.502 139.390,110.954 141.010,111.443 142.000 C 111.933 142.990,112.805 145.760,113.381 148.157 C 116.859 162.614,124.749 176.586,135.918 188.065 C 140.403 192.675,141.309 193.839,140.926 194.500 C 140.831 194.665,140.953 194.800,141.198 194.800 C 141.897 194.800,144.426 196.641,144.131 196.935 C 143.986 197.081,144.177 197.200,144.557 197.200 C 144.937 197.200,145.136 197.380,145.000 197.600 C 144.864 197.820,145.134 198.000,145.600 198.000 C 146.066 198.000,146.336 198.180,146.200 198.400 C 146.064 198.620,146.194 198.800,146.488 198.800 C 146.783 198.800,147.271 199.144,147.574 199.564 C 147.876 199.984,148.345 200.243,148.614 200.139 C 148.883 200.036,149.445 200.367,149.862 200.876 C 150.278 201.384,150.885 201.858,151.210 201.930 C 151.534 202.001,151.860 202.226,151.933 202.430 C 152.007 202.633,152.322 202.800,152.633 202.800 C 152.945 202.800,153.200 202.980,153.200 203.200 C 153.200 203.420,153.470 203.600,153.800 203.600 C 154.130 203.600,154.400 203.780,154.400 204.000 C 154.400 204.220,154.760 204.400,155.200 204.400 C 155.640 204.400,156.000 204.580,156.000 204.800 C 156.000 205.020,156.360 205.200,156.800 205.200 C 157.240 205.200,157.600 205.366,157.600 205.568 C 157.600 205.771,158.142 206.055,158.804 206.201 C 159.466 206.346,160.238 206.676,160.520 206.933 C 161.420 207.756,162.766 208.400,163.584 208.400 C 164.336 208.400,164.385 208.717,164.489 214.300 L 164.600 220.200 165.800 220.055 C 166.460 219.976,174.425 219.833,183.500 219.738 L 200.000 219.567 200.000 186.983 L 200.000 154.400 198.900 154.387 C 190.998 154.295,182.351 153.877,181.400 153.541 C 172.618 150.441,169.803 142.206,174.846 134.365 C 176.281 132.133,184.194 121.349,184.800 120.800 C 184.921 120.690,185.994 119.250,187.184 117.600 C 188.374 115.950,190.282 113.340,191.424 111.800 C 192.567 110.260,194.250 107.920,195.164 106.600 C 196.079 105.280,197.541 103.175,198.414 101.922 L 200.000 99.644 200.000 89.889 C 200.000 84.523,199.898 80.031,199.773 79.906 C 198.608 78.742,194.003 82.267,193.214 84.927 C 188.373 101.246,166.020 95.652,170.350 79.206 C 171.143 76.195,173.843 70.260,174.962 69.066 C 175.203 68.809,176.084 67.748,176.921 66.707 C 181.194 61.391,189.527 57.118,196.909 56.458 L 199.800 56.200 199.903 28.100 L 200.005 -0.000 158.903 0.032 C 136.296 0.049,117.530 0.152,117.200 0.261 M133.478 204.613 C 132.860 205.156,132.514 205.600,132.708 205.600 C 132.902 205.600,133.483 205.150,134.000 204.600 C 135.195 203.328,134.931 203.334,133.478 204.613 M235.759 214.400 C 235.759 217.590,235.821 218.895,235.897 217.300 C 235.973 215.705,235.973 213.095,235.897 211.500 C 235.821 209.905,235.759 211.210,235.759 214.400 M164.566 243.167 C 164.475 243.258,164.400 246.363,164.400 250.067 C 164.400 256.255,164.342 256.800,163.688 256.800 C 163.297 256.800,162.717 257.160,162.400 257.600 C 162.083 258.040,161.593 258.400,161.312 258.400 C 161.030 258.400,160.800 258.591,160.800 258.824 C 160.800 259.057,160.640 259.149,160.445 259.028 C 160.250 258.907,159.870 259.075,159.600 259.400 C 159.330 259.725,158.969 259.904,158.797 259.798 C 158.625 259.692,158.381 259.874,158.254 260.202 C 158.128 260.531,157.767 260.800,157.453 260.800 C 157.138 260.800,156.250 261.430,155.480 262.200 C 154.710 262.970,153.888 263.600,153.654 263.600 C 153.420 263.600,153.035 263.960,152.800 264.400 C 152.565 264.840,152.078 265.200,151.719 265.200 C 151.360 265.200,151.178 265.311,151.314 265.448 C 151.553 265.687,150.675 266.800,150.247 266.800 C 149.900 266.800,148.015 268.795,148.064 269.109 C 148.090 269.269,147.727 269.596,147.257 269.836 C 146.788 270.075,146.524 270.390,146.669 270.536 C 146.814 270.681,146.588 270.814,146.167 270.832 C 145.745 270.849,145.618 270.952,145.885 271.060 C 146.198 271.187,145.960 271.657,145.212 272.389 C 144.575 273.011,144.162 273.628,144.294 273.760 C 144.425 273.892,144.264 274.000,143.934 274.000 C 143.605 274.000,143.084 274.495,142.776 275.100 C 142.469 275.705,141.808 276.630,141.309 277.155 C 140.809 277.680,140.400 278.355,140.400 278.655 C 140.400 278.955,140.247 279.200,140.060 279.200 C 139.873 279.200,139.109 280.415,138.363 281.900 C 137.616 283.385,136.689 284.949,136.303 285.375 C 135.916 285.802,135.600 286.460,135.600 286.838 C 135.600 287.597,133.974 290.923,133.500 291.133 C 133.335 291.207,133.200 291.702,133.200 292.233 C 133.200 292.765,133.020 293.200,132.800 293.200 C 132.580 293.200,132.400 293.639,132.400 294.176 C 132.400 294.713,132.220 295.264,132.000 295.400 C 131.780 295.536,131.600 296.277,131.600 297.047 C 131.600 297.817,131.450 298.355,131.268 298.242 C 131.085 298.129,130.693 299.468,130.397 301.218 C 130.101 302.968,129.722 304.400,129.554 304.400 C 129.387 304.400,129.277 304.759,129.310 305.198 C 129.403 306.433,129.496 306.435,165.800 306.314 L 199.800 306.200 199.902 274.888 C 199.984 250.047,199.901 243.539,199.502 243.395 C 198.865 243.165,164.790 242.942,164.566 243.167 M235.765 250.000 C 235.765 253.850,235.825 255.425,235.898 253.500 C 235.971 251.575,235.971 248.425,235.898 246.500 C 235.825 244.575,235.765 246.150,235.765 250.000 " stroke="none" fill="#e3e3fb" fill-rule="evenodd"></path></g></svg>